<svg width="11" height="10" viewBox="0 0 11 10" fill="none" xmlns="http://www.w3.org/2000/svg">
<path d="M1.0625 4.5625H9.8125C9.92853 4.5625 10.0398 4.60859 10.1219 4.69064C10.2039 4.77269 10.25 4.88397 10.25 5C10.25 5.11603 10.2039 5.22731 10.1219 5.30936C10.0398 5.39141 9.92853 5.4375 9.8125 5.4375H1.0625C0.946468 5.4375 0.835188 5.39141 0.753141 5.30936C0.671094 5.22731 0.625 5.11603 0.625 5C0.625 4.88397 0.671094 4.77269 0.753141 4.69064C0.835188 4.60859 0.946468 4.5625 1.0625 4.5625Z" fill="white"/>
<path d="M1.24363 5.00006L4.87225 8.62781C4.9544 8.70996 5.00056 8.82138 5.00056 8.93756C5.00056 9.05374 4.9544 9.16516 4.87225 9.24731C4.7901 9.32946 4.67868 9.37562 4.5625 9.37562C4.44632 9.37562 4.3349 9.32946 4.25275 9.24731L0.315254 5.30981C0.274511 5.26917 0.242186 5.22089 0.22013 5.16774C0.198075 5.11459 0.186722 5.05761 0.186722 5.00006C0.186722 4.94252 0.198075 4.88554 0.22013 4.83238C0.242186 4.77923 0.274511 4.73095 0.315254 4.69031L4.25275 0.752814C4.3349 0.670663 4.44632 0.624512 4.5625 0.624512C4.67868 0.624512 4.7901 0.670663 4.87225 0.752814C4.9544 0.834965 5.00056 0.946386 5.00056 1.06256C5.00056 1.17874 4.9544 1.29016 4.87225 1.37231L1.24363 5.00006Z" fill="white"/>
</svg>