<svg width="36" height="36" viewBox="0 0 36 36" fill="none" xmlns="http://www.w3.org/2000/svg">
<path d="M31.3594 2.8125H28.125V1.125C28.125 0.503719 27.6214 0 27 0C26.3786 0 25.875 0.503719 25.875 1.125V2.8125H10.125V1.125C10.125 0.503719 9.62135 0 9 0C8.37865 0 7.875 0.503719 7.875 1.125V2.8125H4.64062C2.08174 2.8125 0 4.89424 0 7.45312V31.3594C0 33.9183 2.08174 36 4.64062 36H31.3594C33.9183 36 36 33.9183 36 31.3594V7.45312C36 4.89424 33.9183 2.8125 31.3594 2.8125ZM33.75 31.3594C33.75 32.6797 32.6797 33.75 31.3594 33.75H4.64062C3.3203 33.75 2.25 32.6797 2.25 31.3594V12.7266C2.25 12.5324 2.40743 12.375 2.60156 12.375H33.3984C33.5926 12.375 33.75 12.5324 33.75 12.7266V31.3594Z" fill="#979797"/>
</svg>
