<svg width="20" height="20" viewBox="0 0 20 20" fill="none" xmlns="http://www.w3.org/2000/svg">
<g clip-path="url(#clip0_1017_2964)">
<path d="M10 0C4.48566 0 0 4.48566 0 10C0 15.5143 4.48566 20 10 20C15.5143 20 20 15.5136 20 10C20 4.48645 15.5143 0 10 0ZM10 18.4508C5.34082 18.4508 1.54918 14.66 1.54918 10C1.54918 5.34004 5.34082 1.54918 10 1.54918C14.66 1.54918 18.4508 5.34004 18.4508 10C18.4508 14.66 14.6592 18.4508 10 18.4508Z" fill="#2EBD85"/>
<path d="M14.588 6.52113C14.2728 6.23453 13.7824 6.25699 13.4943 6.57379L8.76927 11.7768L6.48653 9.4561C6.1852 9.1509 5.69567 9.14625 5.39126 9.4468C5.08606 9.74656 5.08141 10.2369 5.38196 10.5421L8.23942 13.4468C8.38583 13.5955 8.58411 13.6784 8.79169 13.6784C8.79634 13.6784 8.80177 13.6784 8.80642 13.6792C9.02021 13.6745 9.22161 13.5831 9.36489 13.4251L14.6406 7.61567C14.9281 7.29805 14.9048 6.80852 14.588 6.52113Z" fill="#2EBD85"/>
</g>
<defs>
<clipPath id="clip0_1017_2964">
<rect width="20" height="20" fill="white"/>
</clipPath>
</defs>
</svg>
