<svg width="20" height="20" viewBox="0 0 20 20" fill="none" xmlns="http://www.w3.org/2000/svg">
<path d="M17.0754 2.92462C13.1759 -0.974873 6.82893 -0.974873 2.92944 2.92462C1.04052 4.81429 0 7.32615 0 9.99758C0 12.669 1.04052 15.1809 2.92944 17.0698C4.87958 19.0199 7.44101 19.9946 10.0024 19.9946C12.5638 19.9946 15.1253 19.0199 17.0754 17.0698C20.9749 13.1703 20.9749 6.82485 17.0754 2.92462ZM15.9798 15.9742C12.6839 19.2702 7.32089 19.2702 4.02496 15.9742C2.42893 14.3782 1.54955 12.2553 1.54955 9.99758C1.54955 7.73986 2.42893 5.61695 4.02496 4.02014C7.32089 0.724206 12.6839 0.724987 15.9798 4.02014C19.275 7.31607 19.275 12.6791 15.9798 15.9742Z" fill="#E2433B"/>
<path d="M13.3409 12.1393L11.1475 9.94898L13.3409 7.75869C13.6431 7.45654 13.6431 6.96611 13.3417 6.66314C13.0388 6.35942 12.5483 6.3602 12.2454 6.66236L10.0505 8.85421L7.85553 6.66236C7.5526 6.3602 7.06216 6.35942 6.75923 6.66314C6.45708 6.96607 6.45708 7.4565 6.76001 7.75869L8.95343 9.94898L6.76001 12.1393C6.45708 12.4414 6.45708 12.9319 6.75923 13.2348C6.91033 13.3867 7.10943 13.4618 7.30779 13.4618C7.50615 13.4618 7.70447 13.3859 7.85557 13.2356L10.0505 11.0437L12.2455 13.2356C12.3966 13.3867 12.5949 13.4618 12.7932 13.4618C12.9916 13.4618 13.1907 13.3859 13.3418 13.2348C13.6439 12.9319 13.6439 12.4414 13.3409 12.1393Z" fill="#E2433B"/>
</svg>
