<svg width="22" height="22" viewBox="0 0 22 22" fill="none" xmlns="http://www.w3.org/2000/svg">
<path d="M11 20.1663C16.0626 20.1663 20.1666 16.0623 20.1666 10.9997C20.1666 5.93706 16.0626 1.83301 11 1.83301C5.93737 1.83301 1.83331 5.93706 1.83331 10.9997C1.83331 16.0623 5.93737 20.1663 11 20.1663Z" fill="#3B5998"/>
<path fill-rule="evenodd" clip-rule="evenodd" d="M13.436 7.772C13.1503 7.71485 12.7645 7.67217 12.5218 7.67217C11.8647 7.67217 11.822 7.95785 11.822 8.415V9.22872H13.4646L13.3214 10.9143H11.822V16.0413H9.76537V10.9143H8.70831V9.22872H9.76537V8.1861C9.76537 6.75794 10.4366 5.95801 12.1218 5.95801C12.7074 5.95801 13.1359 6.04372 13.6928 6.15798L13.436 7.772Z" fill="white"/>
</svg>
