<svg
  width="20"
  height="20"
  viewBox="0 0 20 20"
  fill="none"
  xmlns="http://www.w3.org/2000/svg"
>
  <path
    d="M7.97386 11.1176L4.98693 14.1046L5 12.5C5 12.1536 4.71895 11.8758 4.37582 11.8758C4.03268 11.8758 3.75163 12.1569 3.75163 12.5V15.6242C3.75163 15.8105 3.8268 15.9575 3.94771 16.0621C4.06209 16.1765 4.21895 16.2484 4.39216 16.2484H7.5C7.84641 16.2484 8.12418 15.9673 8.12418 15.6242C8.12418 15.281 7.84314 15 7.5 15H5.85621L8.85621 12L7.97386 11.1176ZM15.6078 3.75163H12.5C12.1536 3.75163 11.8758 4.03268 11.8758 4.37582C11.8758 4.71895 12.1569 5 12.5 5H14.1438L11.1438 8L12.0261 8.88235L15.0131 5.89542L15 7.5C15 7.84641 15.281 8.12418 15.6242 8.12418C15.9673 8.12418 16.2484 7.84314 16.2484 7.5V4.37582C16.2484 4.18954 16.1699 4.04248 16.0523 3.93791C15.9379 3.82353 15.781 3.75163 15.6078 3.75163ZM17.5 0H2.5C1.12092 0 0 1.12092 0 2.5V17.5C0 18.8791 1.12092 20 2.5 20H17.5C18.8791 20 20 18.8791 20 17.5V2.5C20 1.12092 18.8791 0 17.5 0ZM18.7516 17.5C18.7516 18.1895 18.1928 18.7484 17.5033 18.7484H2.50327C1.81373 18.7484 1.2549 18.1895 1.2549 17.5V2.5C1.2549 1.81046 1.81373 1.25163 2.50327 1.25163H17.5033C18.1928 1.25163 18.7516 1.81046 18.7516 2.5V17.5Z"
    fill="white"
  />
</svg>