<svg width="20" height="20" viewBox="0 0 20 20" fill="none" xmlns="http://www.w3.org/2000/svg">
<g clip-path="url(#clip0_9_65)">
<path fill-rule="evenodd" clip-rule="evenodd" d="M4.30305 10.0005C4.30305 9.36539 4.40853 8.7565 4.5968 8.18539L1.30145 5.66895C0.65921 6.97295 0.297363 8.44228 0.297363 10.0005C0.297363 11.5574 0.658765 13.0258 1.30012 14.3289L4.59368 11.8076C4.40719 11.2392 4.30305 10.6325 4.30305 10.0005Z" fill="#FBBC05"/>
<path fill-rule="evenodd" clip-rule="evenodd" d="M10.089 4.22266C11.4688 4.22266 12.715 4.71154 13.6941 5.51154L16.5426 2.6671C14.8068 1.15599 12.5815 0.222656 10.089 0.222656C6.21954 0.222656 2.89393 2.43554 1.30145 5.66888L4.59679 8.18532C5.35609 5.88043 7.5205 4.22266 10.089 4.22266Z" fill="#EB4335"/>
<path fill-rule="evenodd" clip-rule="evenodd" d="M10.089 15.7781C7.5205 15.7781 5.35609 14.1203 4.59679 11.8154L1.30145 14.3314C2.89393 17.5652 6.21954 19.7781 10.089 19.7781C12.4773 19.7781 14.7574 18.9301 16.4687 17.3412L13.3408 14.923C12.4582 15.479 11.3468 15.7781 10.089 15.7781Z" fill="#34A853"/>
<path fill-rule="evenodd" clip-rule="evenodd" d="M19.4356 10.0004C19.4356 9.42266 19.3466 8.80043 19.2131 8.22266H10.0891V12.0004H15.3409C15.0783 13.2884 14.3636 14.2787 13.3408 14.9231L16.4688 17.3413C18.2664 15.6729 19.4356 13.1875 19.4356 10.0004Z" fill="#4285F4"/>
</g>
<defs>
<clipPath id="clip0_9_65">
<rect width="20" height="20" fill="white"/>
</clipPath>
</defs>
</svg>
