<svg width="220" height="220" viewBox="0 0 220 220" fill="none" xmlns="http://www.w3.org/2000/svg">
<path d="M193.6 209L201.3 216.7C205.7 221.1 212.3 221.1 216.7 216.7C221.1 212.3 221.1 205.7 216.7 201.3L101.2 85.8C106.7 77 110 66 110 55C110 24.2 85.8 -5.86607e-06 55 -7.21238e-06C24.2 -8.55869e-06 1.4201e-05 24.2 1.28547e-05 55C1.15084e-05 85.8 24.2 110 55 110C66 110 77 106.7 85.8 101.2L147.4 162.8L124.3 185.9C119.9 190.3 119.9 196.9 124.3 201.3C128.7 205.7 135.3 205.7 139.7 201.3L162.8 178.2L178.2 193.6L170.5 201.3C166.1 205.7 166.1 212.3 170.5 216.7C174.9 221.1 181.5 221.1 185.9 216.7L193.6 209ZM22 55C22 36.3 36.3 22 55 22C73.7 22 88 36.3 88 55C88 73.7 73.7 88 55 88C36.3 88 22 73.7 22 55Z" fill="#A8CFBD"/>
</svg>
