<svg width="132" height="28" viewBox="0 0 132 28" fill="none" xmlns="http://www.w3.org/2000/svg">
<path fill-rule="evenodd" clip-rule="evenodd" d="M2.15997 9.51008V17.2224L21.5997 10.6342V2.69017L2.15997 9.51008ZM0.963284 7.64087C0.386242 7.84331 0 8.38813 0 8.99966V18.2266C0 19.2125 0.968436 19.9069 1.90217 19.5904L22.7819 12.5142C23.3664 12.3161 23.7597 11.7675 23.7597 11.1504V1.67457C23.7597 0.682192 22.7794 -0.0127396 21.843 0.315778L0.963284 7.64087Z" fill="white"/>
<path fill-rule="evenodd" clip-rule="evenodd" d="M2.15997 10.153V17.7355L21.5997 25.4114V17.7694L2.15997 10.153ZM1.96528 7.75686C1.02081 7.38682 0 8.08324 0 9.09761V18.2253C0 18.8164 0.361293 19.3475 0.911129 19.5646L21.7908 27.8091C22.7358 28.1823 23.7597 27.4858 23.7597 26.4698V17.2782C23.7597 16.6857 23.3967 16.1536 22.845 15.9375L1.96528 7.75686Z" fill="white"/>
<path d="M48.7059 6.50345C48.7059 6.86824 48.6056 7.18744 48.405 7.46104C48.2043 7.71639 47.9763 7.91703 47.721 8.06295C47.2468 7.75287 46.7178 7.47015 46.1341 7.2148C45.5505 6.95944 44.83 6.83176 43.9727 6.83176C42.4223 6.83176 41.182 7.33336 40.2518 8.33654C39.3398 9.33973 38.8838 10.7898 38.8838 12.6867C38.8838 14.6201 39.3581 16.0702 40.3065 17.0369C41.255 18.0036 42.5318 18.487 44.1369 18.487C44.9759 18.487 45.6964 18.3775 46.2983 18.1586C46.9184 17.9215 47.4656 17.6479 47.9399 17.3378C48.1952 17.502 48.405 17.73 48.5691 18.0218C48.7333 18.2954 48.8154 18.6146 48.8154 18.9794C48.8154 19.2895 48.7333 19.5722 48.5691 19.8276C48.405 20.0829 48.1314 20.3109 47.7483 20.5116C47.3836 20.7304 46.8637 20.9311 46.1889 21.1135C45.5322 21.3141 44.7114 21.4144 43.7265 21.4144C42.5227 21.4144 41.4009 21.2412 40.3613 20.8946C39.3398 20.5298 38.4461 19.9917 37.68 19.2804C36.9139 18.5508 36.312 17.6388 35.8743 16.5444C35.4365 15.45 35.2177 14.1641 35.2177 12.6867C35.2177 11.264 35.4365 10.0146 35.8743 8.93845C36.312 7.84407 36.9048 6.93208 37.6527 6.20249C38.4187 5.45466 39.3034 4.88923 40.3065 4.5062C41.328 4.12316 42.4041 3.93165 43.535 3.93165C44.3193 3.93165 45.0306 4.00461 45.669 4.15052C46.3074 4.2782 46.8546 4.4606 47.3106 4.69772C47.7666 4.93483 48.1131 5.20843 48.3503 5.5185C48.5874 5.82858 48.7059 6.15689 48.7059 6.50345Z" fill="white"/>
<path d="M55.2577 18.7605C55.7867 18.7605 56.27 18.715 56.7078 18.6238C57.1455 18.5143 57.4647 18.3866 57.6654 18.2407V15.2038L55.0115 15.45C54.2819 15.523 53.7256 15.6872 53.3426 15.9425C52.9595 16.1796 52.768 16.5627 52.768 17.0916C52.768 17.6206 52.9595 18.031 53.3426 18.3228C53.7438 18.6146 54.3822 18.7605 55.2577 18.7605ZM55.1483 7.62519C56.9358 7.62519 58.3585 8.00823 59.4164 8.7743C60.4925 9.54036 61.0306 10.7259 61.0306 12.331V18.6511C61.0306 19.0889 60.9212 19.4354 60.7023 19.6908C60.4834 19.9461 60.2098 20.1741 59.8815 20.3748C59.3708 20.6848 58.7233 20.9311 57.939 21.1135C57.1547 21.2959 56.2609 21.3871 55.2577 21.3871C53.4338 21.3871 51.9928 21.0405 50.9349 20.3474C49.8953 19.6361 49.3754 18.5782 49.3754 17.1737C49.3754 15.9516 49.7585 15.0214 50.5245 14.383C51.3088 13.7264 52.4397 13.3251 53.9171 13.1792L57.6654 12.7962V12.3037C57.6654 11.6106 57.41 11.0999 56.8993 10.7715C56.4068 10.4432 55.7046 10.2791 54.7926 10.2791C54.0813 10.2791 53.3882 10.3703 52.7133 10.5527C52.0384 10.7168 51.4365 10.9266 50.9076 11.1819C50.7069 11.036 50.5336 10.8445 50.3877 10.6074C50.26 10.352 50.1962 10.0784 50.1962 9.7866C50.1962 9.42181 50.2783 9.12997 50.4424 8.91109C50.6248 8.67398 50.9076 8.46422 51.2906 8.28182C51.8195 8.06295 52.4215 7.89879 53.0963 7.78935C53.7712 7.67991 54.4552 7.62519 55.1483 7.62519Z" fill="white"/>
<path d="M69.1517 21.3597C68.6228 21.3597 68.1303 21.305 67.6743 21.1956C67.2366 21.1044 66.8353 20.9858 66.4705 20.8399V25.874C66.3063 25.9105 66.0875 25.9561 65.8139 26.0108C65.5403 26.0656 65.2302 26.0929 64.8836 26.0929C64.2453 26.0929 63.771 25.9744 63.4609 25.7372C63.1509 25.5001 62.9958 25.0806 62.9958 24.4787V10.6074C62.9958 10.1696 63.0779 9.81396 63.2421 9.54037C63.4245 9.26677 63.7072 9.01141 64.0902 8.7743C64.6192 8.46422 65.2758 8.19974 66.0601 7.98087C66.8444 7.74375 67.729 7.62519 68.714 7.62519C69.7172 7.62519 70.6383 7.76199 71.4773 8.03559C72.3346 8.29094 73.0733 8.70134 73.6934 9.26677C74.3136 9.81396 74.7969 10.5162 75.1435 11.3735C75.4901 12.2307 75.6633 13.2521 75.6633 14.4377C75.6633 15.5868 75.4992 16.59 75.1708 17.4473C74.8425 18.3046 74.3865 19.025 73.8029 19.6087C73.2374 20.1924 72.5534 20.6301 71.7509 20.922C70.9666 21.2138 70.1002 21.3597 69.1517 21.3597ZM68.6319 18.5964C69.7263 18.5964 70.5836 18.259 71.2037 17.5841C71.8239 16.9092 72.1339 15.8604 72.1339 14.4377C72.1339 12.9603 71.8147 11.9115 71.1763 11.2914C70.538 10.6712 69.7172 10.3612 68.714 10.3612C68.2215 10.3612 67.7838 10.425 67.4007 10.5527C67.0359 10.6803 66.7167 10.8171 66.4431 10.9631V17.9945C66.735 18.1769 67.0542 18.3228 67.4007 18.4322C67.7655 18.5417 68.1759 18.5964 68.6319 18.5964Z" fill="white"/>
<path d="M77.1893 8.11767C77.3352 8.08119 77.545 8.03559 77.8186 7.98087C78.1104 7.92615 78.4205 7.89879 78.7488 7.89879C79.4054 7.89879 79.8797 8.01735 80.1715 8.25446C80.4816 8.49158 80.6366 8.91109 80.6366 9.51301V20.9493C80.4907 20.9858 80.2718 21.0314 79.98 21.0861C79.7064 21.1408 79.4054 21.1682 79.0771 21.1682C78.4205 21.1682 77.9371 21.0496 77.627 20.8125C77.3352 20.5754 77.1893 20.1559 77.1893 19.554V8.11767ZM76.9157 4.15052C76.9157 3.62157 77.0981 3.1747 77.4629 2.8099C77.8459 2.42687 78.3293 2.23535 78.913 2.23535C79.4966 2.23535 79.9709 2.42687 80.3356 2.8099C80.7004 3.1747 80.8828 3.62157 80.8828 4.15052C80.8828 4.69772 80.7004 5.16283 80.3356 5.54586C79.9709 5.91066 79.4966 6.09305 78.913 6.09305C78.3293 6.09305 77.8459 5.91066 77.4629 5.54586C77.0981 5.16283 76.9157 4.69772 76.9157 4.15052Z" fill="white"/>
<path d="M91.5555 12.5773C91.3548 13.3251 91.136 14.0821 90.8988 14.8481C90.68 15.6142 90.452 16.362 90.2148 17.0916C89.996 17.803 89.7771 18.4687 89.5582 19.0889C89.3576 19.709 89.1843 20.238 89.0384 20.6757C88.8377 20.8216 88.5824 20.9402 88.2723 21.0314C87.9622 21.1408 87.5701 21.1956 87.0959 21.1956C86.5669 21.1956 86.1018 21.1226 85.7005 20.9767C85.3175 20.8125 85.053 20.5754 84.9071 20.2653C84.6882 19.8276 84.442 19.1345 84.1684 18.186C83.8948 17.2193 83.6121 16.1705 83.3202 15.0396C83.0284 13.8905 82.7548 12.7323 82.4994 11.565C82.2623 10.3794 82.0617 9.34885 81.8975 8.47334C82.0799 8.29094 82.3262 8.12679 82.6362 7.98087C82.9646 7.81671 83.3202 7.73463 83.7033 7.73463C84.214 7.73463 84.6153 7.86231 84.9071 8.11767C85.1989 8.35478 85.3904 8.74694 85.4816 9.29413C85.8282 11.4829 86.1565 13.3433 86.4666 14.8755C86.7767 16.3894 86.9955 17.4199 87.1232 17.9671H87.2327C87.3056 17.657 87.4242 17.2011 87.5883 16.5991C87.7707 15.9972 87.9714 15.3041 88.1902 14.5198C88.4274 13.7355 88.6736 12.8965 88.9289 12.0027C89.2025 11.109 89.4761 10.2061 89.7497 9.29413C90.0051 9.14821 90.2696 9.03877 90.5432 8.96581C90.835 8.87461 91.1724 8.82902 91.5555 8.82902C92.0479 8.82902 92.4583 8.91109 92.7867 9.07525C93.1332 9.23941 93.3612 9.48565 93.4706 9.81396C93.7442 10.6895 93.9996 11.5467 94.2367 12.3858C94.4921 13.2248 94.7201 14.0091 94.9207 14.7387C95.1213 15.45 95.2946 16.0884 95.4405 16.6539C95.6047 17.2193 95.7324 17.657 95.8236 17.9671H95.9604C96.2704 16.4532 96.5896 14.8755 96.918 13.2339C97.2645 11.5923 97.5563 9.89604 97.7935 8.14503C98.0123 8.01735 98.2586 7.91703 98.5322 7.84407C98.8058 7.77111 99.0794 7.73463 99.353 7.73463C99.8272 7.73463 100.21 7.84407 100.502 8.06295C100.812 8.28182 100.967 8.6375 100.967 9.12997C100.967 9.38533 100.912 9.80484 100.803 10.3885C100.694 10.9539 100.548 11.6106 100.365 12.3584C100.201 13.088 100.01 13.8723 99.7907 14.7113C99.5901 15.5321 99.3803 16.3347 99.1614 17.119C98.9426 17.885 98.7328 18.5873 98.5322 19.2257C98.3315 19.8458 98.1583 20.3292 98.0123 20.6757C97.8299 20.8216 97.5472 20.9402 97.1642 21.0314C96.7994 21.1408 96.3981 21.1956 95.9604 21.1956C94.8113 21.1956 94.1273 20.9128 93.9084 20.3474C93.7625 19.9461 93.5892 19.4537 93.3886 18.87C93.1879 18.2863 92.9782 17.6479 92.7593 16.9548C92.5587 16.2617 92.3489 15.5412 92.13 14.7934C91.9294 14.0456 91.7379 13.3069 91.5555 12.5773Z" fill="white"/>
<path d="M102.283 8.11767C102.429 8.08119 102.639 8.03559 102.913 7.98087C103.205 7.92615 103.515 7.89879 103.843 7.89879C104.5 7.89879 104.974 8.01735 105.266 8.25446C105.576 8.49158 105.731 8.91109 105.731 9.51301V20.9493C105.585 20.9858 105.366 21.0314 105.074 21.0861C104.801 21.1408 104.5 21.1682 104.171 21.1682C103.515 21.1682 103.031 21.0496 102.721 20.8125C102.429 20.5754 102.283 20.1559 102.283 19.554V8.11767ZM102.01 4.15052C102.01 3.62157 102.192 3.1747 102.557 2.8099C102.94 2.42687 103.423 2.23535 104.007 2.23535C104.591 2.23535 105.065 2.42687 105.43 2.8099C105.795 3.1747 105.977 3.62157 105.977 4.15052C105.977 4.69772 105.795 5.16283 105.43 5.54586C105.065 5.91066 104.591 6.09305 104.007 6.09305C103.423 6.09305 102.94 5.91066 102.557 5.54586C102.192 5.16283 102.01 4.69772 102.01 4.15052Z" fill="white"/>
<path d="M117.963 17.3105C117.963 18.5873 117.489 19.5905 116.54 20.32C115.592 21.0314 114.206 21.3871 112.382 21.3871C111.634 21.3871 110.95 21.3324 110.33 21.2229C109.728 21.1135 109.199 20.9584 108.743 20.7578C108.305 20.5389 107.958 20.2836 107.703 19.9917C107.466 19.6817 107.347 19.3442 107.347 18.9794C107.347 18.6329 107.42 18.3319 107.566 18.0766C107.73 17.8212 107.94 17.6114 108.196 17.4473C108.706 17.7756 109.29 18.0674 109.947 18.3228C110.621 18.5782 111.397 18.7058 112.272 18.7058C113.02 18.7058 113.585 18.5873 113.968 18.3502C114.351 18.0948 114.543 17.7482 114.543 17.3105C114.543 16.5627 113.996 16.0702 112.901 15.8331L111.369 15.4774C110.019 15.1673 109.016 14.7022 108.36 14.0821C107.721 13.4619 107.402 12.632 107.402 11.5923C107.402 10.4068 107.876 9.44917 108.825 8.71958C109.773 7.97175 111.105 7.59783 112.819 7.59783C113.476 7.59783 114.078 7.65255 114.625 7.76199C115.19 7.85319 115.674 7.99911 116.075 8.19975C116.495 8.38214 116.814 8.61014 117.033 8.88373C117.27 9.13909 117.388 9.44005 117.388 9.7866C117.388 10.1149 117.315 10.4068 117.169 10.6621C117.024 10.8992 116.85 11.0907 116.65 11.2367C116.485 11.1272 116.267 11.0178 115.993 10.9083C115.738 10.7989 115.446 10.6986 115.118 10.6074C114.807 10.5162 114.47 10.4432 114.105 10.3885C113.759 10.3156 113.412 10.2791 113.066 10.2791C112.354 10.2791 111.798 10.3976 111.397 10.6347C110.995 10.8536 110.795 11.1728 110.795 11.5923C110.795 11.9024 110.904 12.1578 111.123 12.3584C111.36 12.559 111.761 12.7232 112.327 12.8509L113.667 13.1792C115.181 13.5257 116.276 14.0365 116.951 14.7113C117.625 15.368 117.963 16.2343 117.963 17.3105Z" fill="white"/>
<path d="M122.23 16.0519C122.486 16.9822 122.96 17.657 123.653 18.0766C124.346 18.4961 125.203 18.7058 126.225 18.7058C126.991 18.7058 127.693 18.5964 128.332 18.3775C128.988 18.1404 129.517 17.8942 129.918 17.6388C130.174 17.7847 130.384 17.9854 130.548 18.2407C130.712 18.4961 130.794 18.7697 130.794 19.0615C130.794 19.4263 130.666 19.7546 130.411 20.0464C130.174 20.32 129.836 20.5572 129.399 20.7578C128.979 20.9584 128.477 21.1135 127.894 21.2229C127.31 21.3324 126.681 21.3871 126.006 21.3871C124.93 21.3871 123.945 21.2412 123.051 20.9493C122.176 20.6575 121.419 20.2197 120.78 19.6361C120.16 19.0341 119.668 18.2954 119.303 17.4199C118.956 16.5444 118.783 15.523 118.783 14.3557C118.783 13.2248 118.956 12.2398 119.303 11.4008C119.649 10.5618 120.115 9.85956 120.698 9.29413C121.3 8.7287 121.993 8.30918 122.778 8.03559C123.562 7.76199 124.392 7.62519 125.267 7.62519C126.161 7.62519 126.982 7.77111 127.73 8.06295C128.477 8.33654 129.116 8.7287 129.645 9.23941C130.174 9.73188 130.584 10.3338 130.876 11.0451C131.186 11.7383 131.341 12.4952 131.341 13.316C131.341 13.8267 131.204 14.2097 130.931 14.4651C130.675 14.7204 130.311 14.8846 129.836 14.9576L122.23 16.0519ZM125.267 10.2244C124.374 10.2244 123.626 10.5253 123.024 11.1272C122.422 11.7109 122.084 12.5499 122.012 13.6443L128.085 12.7414C128.012 12.0666 127.748 11.4829 127.292 10.9904C126.836 10.4797 126.161 10.2244 125.267 10.2244Z" fill="white"/>
</svg>
