<svg width="38" height="35" viewBox="0 0 38 35" fill="none" xmlns="http://www.w3.org/2000/svg">
<mask id="path-1-inside-1_0_1" fill="white">
<path fill-rule="evenodd" clip-rule="evenodd" d="M1 0C0.447715 0 0 0.447715 0 1V31C0 31.5523 0.447716 32 1 32H18.268L20 35L21.732 32H37C37.5523 32 38 31.5523 38 31V1C38 0.447715 37.5523 0 37 0H1Z"/>
</mask>
<path fill-rule="evenodd" clip-rule="evenodd" d="M1 0C0.447715 0 0 0.447715 0 1V31C0 31.5523 0.447716 32 1 32H18.268L20 35L21.732 32H37C37.5523 32 38 31.5523 38 31V1C38 0.447715 37.5523 0 37 0H1Z" fill="#252A2D"/>
<path d="M18.268 32L19.134 31.5L18.8453 31H18.268V32ZM20 35L19.134 35.5L20 37L20.866 35.5L20 35ZM21.732 32V31H21.1547L20.866 31.5L21.732 32ZM1 1V-1C-0.104569 -1 -1 -0.10457 -1 1H1ZM1 31V1H-1V31H1ZM1 31H1H-1C-1 32.1046 -0.104568 33 1 33V31ZM18.268 31H1V33H18.268V31ZM20.866 34.5L19.134 31.5L17.4019 32.5L19.134 35.5L20.866 34.5ZM20.866 31.5L19.134 34.5L20.866 35.5L22.5981 32.5L20.866 31.5ZM37 31H21.732V33H37V31ZM37 31V33C38.1046 33 39 32.1046 39 31H37ZM37 1V31H39V1H37ZM37 1H39C39 -0.10457 38.1046 -1 37 -1V1ZM1 1H37V-1H1V1Z" fill="white" mask="url(#path-1-inside-1_0_1)"/>
<rect width="38" height="12" rx="1" fill="white"/>
</svg>
