<svg width="20" height="20" viewBox="0 0 20 20" fill="none" xmlns="http://www.w3.org/2000/svg">
<path fill-rule="evenodd" clip-rule="evenodd" d="M0 10C0 4.48566 4.48566 0 10 0C15.5143 0 20 4.48645 20 10C20 15.5136 15.5143 20 10 20C4.48566 20 0 15.5143 0 10ZM4.77598 16.6382C6.2148 17.773 8.02984 18.4508 10 18.4508C14.6592 18.4508 18.4508 14.66 18.4508 10C18.4508 8.02959 17.773 6.21458 16.6384 4.77583L4.77598 16.6382ZM3.36175 15.224C2.22705 13.7853 1.54918 11.9703 1.54918 10C1.54918 5.34004 5.34082 1.54918 10 1.54918C11.9704 1.54918 13.7854 2.22695 15.2242 3.36162L3.36175 15.224Z" fill="#979797"/>
</svg>
