<svg width="126" height="68" viewBox="0 0 126 68" fill="none" xmlns="http://www.w3.org/2000/svg">
<path d="M23.0109 10.4453C12.2059 10.4453 3.40186 19.2494 3.40186 30.0544C3.40186 40.8594 12.2059 49.6635 23.0109 49.6635H104.689C115.494 49.6635 124.298 40.8594 124.298 30.0544C124.298 19.2494 115.494 10.4453 104.689 10.4453H23.0109Z" fill="#0B1620"/>
<path d="M104.688 51.3043H23.0106C11.2852 51.3043 1.76074 41.7799 1.76074 30.0545C1.76074 18.3291 11.2852 8.80469 23.0106 8.80469H104.688C116.414 8.80469 125.938 18.3291 125.938 30.0545C125.938 41.7799 116.414 51.3043 104.688 51.3043ZM23.0106 10.4454C12.2056 10.4454 3.4015 19.2495 3.4015 30.0545C3.4015 40.8595 12.2056 49.6636 23.0106 49.6636H104.688C115.493 49.6636 124.297 40.8595 124.297 30.0545C124.297 19.2495 115.493 10.4454 104.688 10.4454H23.0106Z" fill="#979797"/>
<path d="M94.8838 18.1289C91.7223 18.1289 89.1611 20.6901 89.1611 23.8916C89.1611 27.053 91.7223 29.6142 94.8838 29.6142C98.0453 29.6142 100.606 27.053 100.606 23.8916C100.606 20.7301 98.0453 18.1289 94.8838 18.1289ZM94.8838 26.8129C93.243 26.8129 91.9224 25.4923 91.9224 23.8515C91.9224 22.2108 93.243 20.8902 94.8838 20.8902C96.5245 20.8902 97.8452 22.2108 97.8452 23.8515C97.8452 25.4923 96.5245 26.8129 94.8838 26.8129Z" fill="#979797"/>
<path d="M68.5517 18.1289C65.3903 18.1289 62.8291 20.6901 62.8291 23.8916C62.8291 27.053 65.3903 29.6142 68.5517 29.6142C71.7132 29.6142 74.3144 27.053 74.3144 23.8916C74.3144 20.7301 71.7132 18.1289 68.5517 18.1289ZM68.5517 26.8129C66.911 26.8129 65.5904 25.4923 65.5904 23.8515C65.5904 22.2108 66.911 20.8902 68.5517 20.8902C70.1925 20.8902 71.5131 22.2108 71.5131 23.8515C71.5131 25.4923 70.1925 26.8129 68.5517 26.8129Z" fill="#979797"/>
<path d="M88.761 26.9715C88.4009 27.0916 87.8406 27.1716 87.6405 27.1716C86.6401 27.1716 86.44 26.8515 86.44 25.891V20.5686H88.8011V18.3675H86.44V15.2461H83.7987L83.2385 18.3675H81.3976H81.2376C79.7169 18.3675 78.5963 19.288 77.876 20.7286L76.9556 18.3675H75.0747V29.3726H78.3162V24.5704C78.3162 22.1693 79.7569 20.6086 81.4376 20.5686H83.1985V26.0511C83.1985 28.6123 84.5191 29.5727 86.6801 29.5727C87.8006 29.5727 88.641 29.3326 89.1612 29.1725L88.761 26.9715Z" fill="#979797"/>
<path d="M104.568 21.8898V29.4133H101.407V18.4082H103.328L103.968 20.089" fill="#979797"/>
<path d="M103.928 20.0898C104.889 18.9693 106.209 18.1289 107.73 18.1289C110.371 18.1289 111.412 20.2099 111.412 22.1708V29.4141H108.17V22.2508C108.17 21.2904 107.37 20.8102 106.529 20.8102C105.609 20.8102 105.049 21.3304 104.529 21.8906" fill="#979797"/>
<path d="M50.1831 14.4062H53.7848L58.7471 23.8506V14.4062H61.7485V29.4132H58.4669L53.1845 19.0484V29.4132H50.1831V14.4062Z" fill="#979797"/>
<path d="M121.016 8.76367V9.32393H120.216V11.9652H119.615V9.32393H118.815V8.76367H121.016Z" fill="#979797"/>
<path d="M121.457 11.9652V8.76367H122.257L122.817 10.8446L123.377 8.76367H124.218V11.9652H123.698V9.484L123.057 11.9652H122.617L121.977 9.484H121.937V11.9652H121.457Z" fill="#979797"/>
<path d="M49.3027 42.6996L50.0631 41.5391C50.6634 41.9793 51.5838 42.4195 52.7043 42.4195C53.7848 42.4195 54.4651 41.9392 54.4651 41.0588C54.4651 40.0984 53.6247 39.8183 52.2241 39.338C50.9835 38.8978 49.7429 38.2575 49.7429 36.4967C49.7429 34.856 51.0635 33.9355 52.7843 33.9355C53.9449 33.9355 54.8253 34.1757 55.5056 34.5758L54.9053 35.8164C54.3451 35.4963 53.6247 35.2962 52.8244 35.2962C51.8639 35.2962 51.2636 35.6563 51.2636 36.4567C51.2636 37.3771 51.944 37.5772 53.2245 38.0174C54.5452 38.4576 56.0258 39.0579 56.0258 41.0188C56.0258 42.6596 54.8653 43.7401 52.7443 43.7401C51.1036 43.7801 49.983 43.2599 49.3027 42.6996Z" fill="#979797"/>
<path d="M58.8271 34.1348H64.5098V35.4554H60.4279V38.0566H63.6294V39.3372H60.4279V42.3386H64.7499V43.6592H58.8271V34.1348Z" fill="#979797"/>
<path d="M67.0708 38.8988C67.0708 36.0975 68.3914 33.9766 71.0727 33.9766C72.2732 33.9766 73.1936 34.3367 73.8739 35.1371L72.9135 36.2176C72.3532 35.6573 71.873 35.3772 71.0727 35.3772C69.5119 35.3772 68.7916 36.6578 68.7916 39.0189C68.7916 41.2199 69.5519 42.3404 71.0727 42.3404C71.913 42.3404 72.5133 41.9002 73.0336 41.34L73.994 42.3804C73.3137 43.1808 72.4333 43.7411 71.0326 43.7411C68.3514 43.7811 67.0708 41.7001 67.0708 38.8988Z" fill="#979797"/>
<path d="M76.6353 40.0175V34.1348H78.276V40.2976C78.276 41.6182 78.5962 42.4586 79.9968 42.4586C81.3574 42.4586 81.7176 41.6182 81.7176 40.2976V34.1348H83.3584V40.0175C83.3584 42.3786 82.4379 43.7792 79.9968 43.7792C77.5557 43.7792 76.6353 42.3786 76.6353 40.0175Z" fill="#979797"/>
<path d="M93.2832 43.6592H91.5224L89.6815 39.6173H88.1608V43.6592H86.5601V34.1348H89.6815C91.6024 34.1348 93.1231 34.8151 93.1231 36.896C93.1231 38.3367 92.2827 39.057 91.3223 39.3772L93.2832 43.6592ZM89.6015 38.3767C90.802 38.3767 91.4423 37.9765 91.4423 36.896C91.4423 35.8556 90.802 35.4554 89.7215 35.4554H88.2008V38.3767H89.6015Z" fill="#979797"/>
<path d="M96.0444 34.1348H101.727V35.4554H97.6452V38.0566H100.847V39.3372H97.6452V42.3386H101.967V43.6592H96.0444V34.1348Z" fill="#979797"/>
<path d="M104.688 34.1348H107.05C110.171 34.1348 111.652 35.8155 111.652 38.8569C111.652 41.9784 110.131 43.6592 107.13 43.6592H104.648V34.1348H104.688ZM106.97 42.3386C109.211 42.3386 109.971 41.2981 109.971 38.8569C109.971 36.6959 109.371 35.4554 107.17 35.4554H106.289V42.3386H106.97Z" fill="#979797"/>
<path d="M22.9306 52.9843C10.2848 52.9843 0 42.6995 0 30.0536C0 17.4078 10.2848 7.12305 22.9306 7.12305C35.5765 7.12305 45.8612 17.4078 45.8612 30.0536C45.8612 42.6995 35.5765 52.9843 22.9306 52.9843ZM22.9306 14.3664C18.7287 14.3664 14.8069 16.0072 11.8455 18.9685C8.88411 21.9299 7.24335 25.8517 7.24335 30.0536C7.24335 34.2556 8.88411 38.1774 11.8455 41.1388C14.8069 44.1002 18.7287 45.7409 22.9306 45.7409C27.1326 45.7409 31.0544 44.1002 34.0157 41.1388C36.9771 38.1774 38.6179 34.2556 38.6179 30.0536C38.6179 25.8517 36.9771 21.9299 34.0157 18.9685C31.0544 16.0072 27.0925 14.3664 22.9306 14.3664Z" fill="#979797"/>
<path d="M49.7027 3.56055H47.9019V5.36138H49.7027V3.56055Z" fill="#979797"/>
<path d="M49.7027 0H47.9019V1.80083H49.7027V0Z" fill="#979797"/>
<path d="M44.5406 5.32227H42.8599V7.08308H44.5406V5.32227Z" fill="#979797"/>
<path d="M41.2589 8.76367H39.5781V10.4444H41.2589V8.76367Z" fill="#979797"/>
<path d="M46.4214 7.08203H44.5405V8.76281H46.4214V7.08203Z" fill="#979797"/>
<path d="M39.5782 7.16406H37.8975V8.7648H39.5782V7.16406Z" fill="#979797"/>
<path d="M44.5406 8.76367H42.8599V10.4444H44.5406V8.76367Z" fill="#979797"/>
<path d="M47.9019 1.80078H46.1411V3.56159H47.9019V1.80078Z" fill="#979797"/>
<path d="M46.1414 3.56055H42.8599V5.32136H46.1414V3.56055Z" fill="#979797"/>
<path d="M42.9 5.32227H41.2593V8.76386H42.9V5.32227Z" fill="#979797"/>
<path d="M41.2587 10.4453V12.1261H39.5779V10.4453H36.7766V11.6459H35.2959V13.1266H36.9767V14.8073H35.2959V13.1266H33.5351V15.7278H31.8143V17.4085H30.6938V19.0893H29.4532C28.0926 21.1303 24.611 27.5332 23.5705 30.1344C19.8088 24.892 16.8874 22.811 14.5663 22.0507C13.3258 21.6905 11.8451 23.0111 13.886 25.1721C18.6082 30.3745 20.1289 34.6965 21.5696 38.1381C22.3299 39.939 25.7315 40.2191 26.4118 38.3782C27.8525 34.4564 29.9735 30.0944 32.4946 26.4927V24.6119H33.8152V22.9311H35.2159V20.9702H36.8967V19.1293H35.2159V17.4085H36.8967V19.1293H38.5374V17.4486H39.858V15.4076H41.3387V14.007H42.7794V10.4453H41.2587Z" fill="#979797"/>
<path d="M8.88428 60.829H10.1249V61.7495C10.525 61.1892 11.0853 60.709 11.9657 60.709C13.2463 60.709 14.5269 61.7495 14.5269 63.5503V63.5903C14.5269 65.3912 13.2863 66.4316 11.9657 66.4316C11.0453 66.4316 10.485 65.9914 10.1249 65.4712V67.9924H8.88428V60.829ZM13.2863 63.5903C13.2863 62.5098 12.566 61.8295 11.7256 61.8295C10.8852 61.8295 10.1249 62.5498 10.1249 63.5903V63.6303C10.1249 64.6708 10.8852 65.3912 11.7256 65.3912C12.566 65.3511 13.2863 64.6708 13.2863 63.5903Z" fill="#979797"/>
<path d="M15.5674 63.6294C15.5674 62.0286 16.808 60.748 18.4887 60.748C20.1695 60.748 21.4101 62.0286 21.4101 63.5894V63.6294C21.4101 65.1901 20.1695 66.4707 18.4887 66.4707C16.808 66.4707 15.5674 65.1901 15.5674 63.6294ZM20.1695 63.6294C20.1695 62.6289 19.4892 61.8286 18.4887 61.8286C17.4883 61.8286 16.848 62.6289 16.848 63.5894V63.6294C16.848 64.5898 17.5283 65.3902 18.5288 65.3902C19.5292 65.3502 20.1695 64.5498 20.1695 63.6294Z" fill="#979797"/>
<path d="M22.0103 60.8281H23.3309L24.4114 64.5899L25.6119 60.8281H26.6924L27.933 64.5899L29.0535 60.8281H30.2941L28.4933 66.3507H27.3727L26.1722 62.629L24.9316 66.3507H23.8111L22.0103 60.8281Z" fill="#979797"/>
<path d="M30.9346 63.5903C30.9346 61.9896 32.0551 60.709 33.6158 60.709C35.3766 60.709 36.257 62.0696 36.257 63.6704C36.257 63.7904 36.257 63.9105 36.217 64.0305H32.2152C32.3352 64.9109 32.9755 65.4312 33.7759 65.4312C34.3762 65.4312 34.8164 65.1911 35.2566 64.7909L35.9769 65.4312C35.4567 66.0715 34.7363 66.4716 33.7359 66.4716C32.1751 66.4716 30.9346 65.3111 30.9346 63.5903ZM35.0165 63.1901C34.9364 62.3898 34.4562 61.7495 33.6158 61.7495C32.8555 61.7495 32.2952 62.3497 32.1751 63.1901H35.0165Z" fill="#979797"/>
<path d="M37.5371 60.8282H38.7777V62.0687C39.1378 61.2683 39.7381 60.7081 40.6986 60.7481V62.0687H40.6185C39.498 62.0687 38.7376 62.7891 38.7376 64.2297V66.3107H37.4971V60.8282H37.5371Z" fill="#979797"/>
<path d="M41.499 63.5903C41.499 61.9896 42.6195 60.709 44.1803 60.709C45.9411 60.709 46.8215 62.0696 46.8215 63.6704C46.8215 63.7904 46.8215 63.9105 46.7815 64.0305H42.7396C42.8597 64.9109 43.5 65.4312 44.3003 65.4312C44.9006 65.4312 45.3408 65.1911 45.781 64.7909L46.5013 65.4312C45.9811 66.0715 45.2608 66.4716 44.2603 66.4716C42.6996 66.4716 41.499 65.3111 41.499 63.5903ZM45.5409 63.1901C45.4609 62.3898 44.9806 61.7495 44.1402 61.7495C43.3799 61.7495 42.8196 62.3497 42.6996 63.1901H45.5409Z" fill="#979797"/>
<path d="M47.8223 63.5883C47.8223 61.7475 49.0628 60.707 50.3834 60.707C51.3039 60.707 51.8641 61.1472 52.2643 61.6674V58.7461H53.5049V66.3096H52.2243V65.3892C51.8241 65.9494 51.2639 66.4297 50.3434 66.4297C49.0628 66.4297 47.8223 65.4292 47.8223 63.5883ZM52.2243 63.5883C52.2243 62.5078 51.464 61.8275 50.6236 61.8275C49.7432 61.8275 49.0628 62.5078 49.0628 63.5883V63.6284C49.0628 64.6688 49.7832 65.3892 50.6236 65.3892C51.504 65.3492 52.2243 64.6288 52.2243 63.5883Z" fill="#979797"/>
<path d="M59.3875 65.4692V66.3096H58.147V58.7461H59.3875V61.7475C59.7877 61.1872 60.348 60.707 61.2284 60.707C62.509 60.707 63.7896 61.7475 63.7896 63.5483V63.5883C63.7896 65.3892 62.549 66.4297 61.2284 66.4297C60.348 66.4297 59.7877 65.9894 59.3875 65.4692ZM62.549 63.5883C62.549 62.5078 61.8287 61.8275 60.9883 61.8275C60.1479 61.8275 59.3875 62.5479 59.3875 63.5883V63.6284C59.3875 64.6688 60.1479 65.3892 60.9883 65.3892C61.8287 65.3492 62.549 64.6688 62.549 63.5883Z" fill="#979797"/>
<path d="M64.6697 67.6713L65.1099 66.7509C65.3501 66.8709 65.5902 66.951 65.8303 66.951C66.1904 66.951 66.3905 66.7909 66.5906 66.3107L64.3096 60.8281H65.6302L67.1909 64.91L68.6316 60.8281H69.9522L67.7912 66.4707C67.351 67.5912 66.8707 67.9914 65.9903 67.9914C65.4301 68.0315 65.0699 67.9114 64.6697 67.6713Z" fill="#979797"/>
<path d="M73.6743 59.0684H75.075L77.276 64.6309L79.437 59.0684H80.8376L77.7962 66.3918H76.6757L73.6743 59.0684Z" fill="#979797"/>
<path d="M81.0776 63.5903C81.0776 61.9896 82.1981 60.709 83.7589 60.709C85.5197 60.709 86.4001 62.0696 86.4001 63.6704C86.4001 63.7904 86.4001 63.9105 86.3601 64.0305H82.3182C82.4383 64.9109 83.0786 65.4312 83.8789 65.4312C84.4792 65.4312 84.9194 65.1911 85.3596 64.7909L86.08 65.4312C85.5597 66.0715 84.8394 66.4716 83.8389 66.4716C82.3182 66.4716 81.0776 65.3111 81.0776 63.5903ZM85.1595 63.1901C85.0795 62.3898 84.5993 61.7495 83.7589 61.7495C82.9985 61.7495 82.4383 62.3497 82.3182 63.1901H85.1595Z" fill="#979797"/>
<path d="M87.7207 60.8282H88.9613V62.0687C89.3214 61.2683 89.9217 60.7081 90.9222 60.7481V62.0687H90.8421C89.7216 62.0687 88.9613 62.7891 88.9613 64.2297V66.3107H87.7207V60.8282Z" fill="#979797"/>
<path d="M91.9229 58.8262H93.2835V60.0267H91.9229V58.8262ZM91.9629 60.8271H93.2034V66.3096H91.9629V60.8271Z" fill="#979797"/>
<path d="M94.5234 65.2692L95.2838 64.3488C95.9641 64.949 96.6844 65.3092 97.5648 65.3092C98.3652 65.3092 98.8454 64.9491 98.8454 64.3888V64.3488C98.8454 63.8285 98.5653 63.5484 97.2047 63.2283C95.6439 62.8681 94.8036 62.3879 94.8036 61.0672V61.0272C94.8036 59.7867 95.844 58.9062 97.2847 58.9062C98.3252 58.9062 99.1656 59.2264 99.9259 59.8267L99.2456 60.7871C98.6053 60.3069 97.925 60.0268 97.2847 60.0268C96.5244 60.0268 96.0842 60.427 96.0842 60.9072V60.9472C96.0842 61.5075 96.4043 61.7476 97.8049 62.1077C99.3257 62.4679 100.126 63.0282 100.126 64.2287C100.126 65.5893 99.0455 66.3897 97.5248 66.3897C96.4443 66.4297 95.4038 66.0295 94.5234 65.2692Z" fill="#979797"/>
<path d="M101.567 58.8262H102.928V60.0267H101.567V58.8262ZM101.607 60.8271H102.847V66.3096H101.607V60.8271Z" fill="#979797"/>
<path d="M104.448 67.3511L104.928 66.3906C105.529 66.7508 106.129 66.9509 106.889 66.9509C108.01 66.9509 108.61 66.3906 108.61 65.2701V64.8299C108.17 65.4302 107.57 65.8304 106.689 65.8304C105.409 65.8304 104.208 64.8699 104.208 63.2692V63.2292C104.208 61.6284 105.409 60.668 106.689 60.668C107.61 60.668 108.17 61.1082 108.61 61.5884V60.788H109.851V65.15C109.851 66.0705 109.611 66.7508 109.17 67.231C108.69 67.7112 107.89 67.9513 106.929 67.9513C105.969 67.9914 105.128 67.7913 104.448 67.3511ZM108.61 63.3092C108.61 62.3888 107.89 61.7885 107.009 61.7885C106.129 61.7885 105.449 62.3888 105.449 63.3092V63.3492C105.449 64.2696 106.129 64.8699 107.009 64.8699C107.85 64.8299 108.61 64.1896 108.61 63.3092Z" fill="#979797"/>
<path d="M111.452 60.829H112.692V61.6694C113.052 61.1492 113.573 60.709 114.413 60.709C115.654 60.709 116.374 61.5494 116.374 62.83V66.3116H115.133V63.1901C115.133 62.3497 114.693 61.8695 113.973 61.8695C113.252 61.8695 112.732 62.3898 112.732 63.2302V66.3116H111.452V60.829Z" fill="#979797"/>
</svg>
