<svg width="20" height="20" viewBox="0 0 20 20" fill="none" xmlns="http://www.w3.org/2000/svg">
<path d="M17.0754 2.92541C13.1759 -0.975137 6.82893 -0.975137 2.92944 2.92541C1.04052 4.81559 0 7.32813 0 10.0003C0 12.6724 1.04052 15.185 2.92944 17.0744C4.87958 19.0251 7.44101 20 10.0024 20C12.5638 20 15.1253 19.0251 17.0754 17.0744C20.9749 13.1739 20.9749 6.8267 17.0754 2.92541ZM15.9798 15.9786C12.6839 19.2754 7.32089 19.2754 4.02496 15.9786C2.42893 14.3821 1.54955 12.2586 1.54955 10.0003C1.54955 7.74196 2.42893 5.61847 4.02496 4.02122C7.32089 0.724402 12.6839 0.725183 15.9798 4.02122C19.275 7.31805 19.275 12.6825 15.9798 15.9786Z" fill="#E2433B"/>
<path d="M13.3414 12.1423L11.148 9.9514L13.3414 7.76051C13.6436 7.45828 13.6436 6.96772 13.3422 6.66466C13.0393 6.36087 12.5488 6.36165 12.2459 6.66388L10.051 8.85633L7.85602 6.66388C7.55309 6.36165 7.06265 6.36087 6.75972 6.66466C6.45757 6.96768 6.45757 7.45824 6.7605 7.76051L8.95392 9.9514L6.7605 12.1423C6.45757 12.4445 6.45757 12.9351 6.75972 13.2381C6.91081 13.39 7.10992 13.4652 7.30828 13.4652C7.50664 13.4652 7.70496 13.3892 7.85606 13.2389L10.051 11.0464L12.2459 13.2389C12.397 13.39 12.5954 13.4652 12.7937 13.4652C12.9921 13.4652 13.1912 13.3892 13.3423 13.2381C13.6444 12.9351 13.6444 12.4445 13.3414 12.1423Z" fill="#E2433B"/>
</svg>
