<svg width="236" height="220" viewBox="0 0 236 220" fill="none" xmlns="http://www.w3.org/2000/svg">
<path d="M232.23 1.16329C229.858 -0.350577 226.819 -0.391292 224.42 1.06705L3.57375 134.568C1.07162 136.079 -0.305293 138.921 0.0574419 141.816C0.416476 144.714 2.44853 147.131 5.23567 147.982L74.3182 169.106L83.3681 214.059C83.8937 216.654 85.7592 218.771 88.2687 219.615C89.0386 219.874 89.8344 220 90.6265 220C92.4032 220 94.1576 219.356 95.5309 218.142L131.279 186.525L204.655 208.962C205.362 209.181 206.095 209.288 206.82 209.288C208.253 209.288 209.67 208.874 210.892 208.07C212.731 206.856 213.938 204.887 214.182 202.696L235.606 8.21072C235.913 5.41247 234.607 2.68085 232.23 1.16329ZM95.3495 198.539L90.4156 174.025L114.678 181.446L95.3495 198.539ZM200.443 192.192L108.526 164.087L182.943 76.7936C184.268 75.239 184.086 72.9034 182.528 71.5783C180.977 70.2495 178.634 70.4346 177.313 71.9929L100.816 161.729L25.4082 138.673L219.246 21.495L200.443 192.192Z" fill="#A8CFBD"/>
</svg>
