<svg width="10" height="6" viewBox="0 0 10 6" fill="none" xmlns="http://www.w3.org/2000/svg">
<path fill-rule="evenodd" clip-rule="evenodd" d="M0 0.555556C0 0.615828 0.00960029 0.673861 0.0273503 0.728206C0.25005 1.47267 0.598273 2.10483 1.03415 2.62472L0.325534 3.33333C0.108572 3.55028 0.108572 3.90206 0.325534 4.119C0.542489 4.33594 0.894245 4.33594 1.11121 4.119L1.8397 3.3905C2.23644 3.69033 2.67162 3.92528 3.12858 4.09533L2.92977 4.83728C2.85036 5.13367 3.02624 5.43828 3.32261 5.51767C3.61898 5.59711 3.92361 5.42122 4.003 5.12483L4.20495 4.37122C4.73133 4.44911 5.26867 4.44911 5.79506 4.37122L5.997 5.12483C6.07639 5.42122 6.381 5.59711 6.67739 5.51767C6.97378 5.43828 7.14967 5.13367 7.07022 4.83728L6.87145 4.09533C7.32844 3.92528 7.76361 3.69033 8.16039 3.39044L8.88894 4.119C9.10589 4.33594 9.45767 4.33594 9.67461 4.119C9.89156 3.90206 9.89156 3.55028 9.67461 3.33333L8.96595 2.62467C9.40228 2.10422 9.75083 1.47122 9.97344 0.725672C9.99072 0.672055 10 0.614894 10 0.555556C10 0.248733 9.75128 0 9.44444 0C9.18811 0 8.97233 0.1736 8.90822 0.409639C7.74756 4.289 2.24982 4.28811 1.09104 0.407045C1.02608 0.172328 0.810945 0 0.555556 0C0.248734 0 0 0.248733 0 0.555556Z" fill="#979797"/>
</svg>
