<svg width="206" height="48" viewBox="0 0 206 48" fill="none" xmlns="http://www.w3.org/2000/svg">
<path d="M68.1797 17.8594H64.5234V28H63.0312V17.8594H59.3828V16.625H68.1797V17.8594ZM72.4659 26.7734H77.8565V28H70.9581V16.625H72.4659V26.7734ZM84.0099 22.9297C82.7235 22.5599 81.786 22.1068 81.1974 21.5703C80.6141 21.0286 80.3224 20.362 80.3224 19.5703C80.3224 18.6745 80.6792 17.9349 81.3928 17.3516C82.1115 16.763 83.0438 16.4688 84.1896 16.4688C84.9709 16.4688 85.6662 16.6198 86.2756 16.9219C86.8902 17.224 87.3641 17.6406 87.6974 18.1719C88.036 18.7031 88.2053 19.2839 88.2053 19.9141H86.6974C86.6974 19.2266 86.4787 18.6875 86.0412 18.2969C85.6037 17.901 84.9865 17.7031 84.1896 17.7031C83.45 17.7031 82.8719 17.8672 82.4553 18.1953C82.0438 18.5182 81.8381 18.9688 81.8381 19.5469C81.8381 20.0104 82.0334 20.4036 82.424 20.7266C82.8198 21.0443 83.4891 21.3359 84.4318 21.6016C85.3797 21.8672 86.1193 22.1615 86.6506 22.4844C87.187 22.8021 87.5829 23.1745 87.8381 23.6016C88.0985 24.0286 88.2287 24.5312 88.2287 25.1094C88.2287 26.0312 87.8693 26.7708 87.1506 27.3281C86.4318 27.8802 85.4709 28.1562 84.2678 28.1562C83.4865 28.1562 82.7573 28.0078 82.0803 27.7109C81.4032 27.4089 80.8797 26.9974 80.5099 26.4766C80.1454 25.9557 79.9631 25.3646 79.9631 24.7031H81.4709C81.4709 25.3906 81.7235 25.9349 82.2287 26.3359C82.7391 26.7318 83.4188 26.9297 84.2678 26.9297C85.0594 26.9297 85.6662 26.7682 86.0881 26.4453C86.5099 26.1224 86.7209 25.6823 86.7209 25.125C86.7209 24.5677 86.5256 24.138 86.1349 23.8359C85.7443 23.5286 85.036 23.2266 84.0099 22.9297ZM100.684 28H99.2308V18.3672L96.3168 19.4375V18.125L100.457 16.5703H100.684V28ZM106.189 27.2422C106.189 26.9922 106.262 26.7839 106.408 26.6172C106.559 26.4505 106.783 26.3672 107.08 26.3672C107.376 26.3672 107.6 26.4505 107.751 26.6172C107.908 26.7839 107.986 26.9922 107.986 27.2422C107.986 27.4818 107.908 27.6823 107.751 27.8438C107.6 28.0052 107.376 28.0859 107.08 28.0859C106.783 28.0859 106.559 28.0052 106.408 27.8438C106.262 27.6823 106.189 27.4818 106.189 27.2422ZM118.772 28H111.319V26.9609L115.256 22.5859C115.84 21.9245 116.241 21.388 116.46 20.9766C116.683 20.5599 116.795 20.1302 116.795 19.6875C116.795 19.0938 116.616 18.6068 116.256 18.2266C115.897 17.8464 115.418 17.6562 114.819 17.6562C114.1 17.6562 113.54 17.862 113.139 18.2734C112.743 18.6797 112.545 19.2474 112.545 19.9766H111.1C111.1 18.9297 111.436 18.0833 112.108 17.4375C112.785 16.7917 113.689 16.4688 114.819 16.4688C115.876 16.4688 116.712 16.7474 117.327 17.3047C117.941 17.8568 118.249 18.5938 118.249 19.5156C118.249 20.6354 117.535 21.9688 116.108 23.5156L113.061 26.8203H118.772V28ZM133.259 22.7422H128.329V26.7734H134.055V28H126.829V16.625H133.977V17.8594H128.329V21.5156H133.259V22.7422ZM138.154 19.5469L138.201 20.6094C138.847 19.7969 139.691 19.3906 140.732 19.3906C142.519 19.3906 143.42 20.3984 143.435 22.4141V28H141.99V22.4062C141.985 21.7969 141.844 21.3464 141.568 21.0547C141.297 20.763 140.873 20.6172 140.295 20.6172C139.826 20.6172 139.415 20.7422 139.06 20.9922C138.706 21.2422 138.43 21.5703 138.232 21.9766V28H136.787V19.5469H138.154ZM150.097 26.9766C150.612 26.9766 151.063 26.8203 151.448 26.5078C151.834 26.1953 152.047 25.8047 152.089 25.3359H153.456C153.43 25.8203 153.263 26.2812 152.956 26.7188C152.649 27.1562 152.237 27.5052 151.722 27.7656C151.211 28.026 150.67 28.1562 150.097 28.1562C148.946 28.1562 148.029 27.7734 147.347 27.0078C146.67 26.237 146.331 25.1849 146.331 23.8516V23.6094C146.331 22.7865 146.482 22.0547 146.784 21.4141C147.086 20.7734 147.518 20.276 148.081 19.9219C148.649 19.5677 149.318 19.3906 150.089 19.3906C151.037 19.3906 151.823 19.6745 152.448 20.2422C153.078 20.8099 153.414 21.5469 153.456 22.4531H152.089C152.047 21.9062 151.839 21.4583 151.464 21.1094C151.094 20.7552 150.636 20.5781 150.089 20.5781C149.354 20.5781 148.784 20.8438 148.378 21.375C147.977 21.901 147.776 22.6641 147.776 23.6641V23.9375C147.776 24.9115 147.977 25.6615 148.378 26.1875C148.779 26.7135 149.352 26.9766 150.097 26.9766ZM160.258 20.8438C160.039 20.8073 159.802 20.7891 159.547 20.7891C158.599 20.7891 157.956 21.1927 157.617 22V28H156.172V19.5469H157.578L157.602 20.5234C158.076 19.7682 158.747 19.3906 159.617 19.3906C159.898 19.3906 160.112 19.4271 160.258 19.5V20.8438ZM165.591 25.8828L167.56 19.5469H169.107L165.708 29.3047C165.182 30.7109 164.346 31.4141 163.2 31.4141L162.927 31.3906L162.388 31.2891V30.1172L162.778 30.1484C163.268 30.1484 163.648 30.0495 163.919 29.8516C164.195 29.6536 164.422 29.2917 164.599 28.7656L164.919 27.9062L161.903 19.5469H163.482L165.591 25.8828ZM178.635 23.8672C178.635 25.1536 178.341 26.1901 177.752 26.9766C177.164 27.763 176.367 28.1562 175.362 28.1562C174.335 28.1562 173.528 27.8307 172.94 27.1797V31.25H171.494V19.5469H172.815L172.885 20.4844C173.473 19.7552 174.291 19.3906 175.338 19.3906C176.354 19.3906 177.156 19.7734 177.744 20.5391C178.338 21.3047 178.635 22.3698 178.635 23.7344V23.8672ZM177.19 23.7031C177.19 22.75 176.987 21.9974 176.58 21.4453C176.174 20.8932 175.617 20.6172 174.908 20.6172C174.033 20.6172 173.377 21.0052 172.94 21.7812V25.8203C173.372 26.5911 174.033 26.9766 174.924 26.9766C175.617 26.9766 176.166 26.7031 176.572 26.1562C176.984 25.6042 177.19 24.7865 177.19 23.7031ZM183.531 17.5V19.5469H185.109V20.6641H183.531V25.9062C183.531 26.2448 183.601 26.5 183.741 26.6719C183.882 26.8385 184.122 26.9219 184.46 26.9219C184.627 26.9219 184.856 26.8906 185.148 26.8281V28C184.768 28.1042 184.398 28.1562 184.038 28.1562C183.393 28.1562 182.906 27.9609 182.577 27.5703C182.249 27.1797 182.085 26.625 182.085 25.9062V20.6641H180.546V19.5469H182.085V17.5H183.531ZM191.403 28.1562C190.257 28.1562 189.325 27.7812 188.606 27.0312C187.887 26.276 187.528 25.2682 187.528 24.0078V23.7422C187.528 22.9036 187.687 22.1562 188.004 21.5C188.327 20.8385 188.775 20.3229 189.348 19.9531C189.926 19.5781 190.551 19.3906 191.223 19.3906C192.322 19.3906 193.176 19.7526 193.786 20.4766C194.395 21.2005 194.7 22.237 194.7 23.5859V24.1875H188.973C188.994 25.0208 189.236 25.6953 189.7 26.2109C190.168 26.7214 190.762 26.9766 191.481 26.9766C191.991 26.9766 192.424 26.8724 192.778 26.6641C193.132 26.4557 193.442 26.1797 193.707 25.8359L194.59 26.5234C193.882 27.612 192.819 28.1562 191.403 28.1562ZM191.223 20.5781C190.64 20.5781 190.15 20.7917 189.754 21.2188C189.358 21.6406 189.114 22.2344 189.02 23H193.254V22.8906C193.213 22.1562 193.015 21.5885 192.661 21.1875C192.306 20.7812 191.827 20.5781 191.223 20.5781ZM197.119 23.7031C197.119 22.4062 197.426 21.3646 198.04 20.5781C198.655 19.7865 199.46 19.3906 200.455 19.3906C201.444 19.3906 202.228 19.7292 202.806 20.4062V16H204.251V28H202.923L202.853 27.0938C202.275 27.8021 201.47 28.1562 200.439 28.1562C199.46 28.1562 198.66 27.7552 198.04 26.9531C197.426 26.151 197.119 25.1042 197.119 23.8125V23.7031ZM198.564 23.8672C198.564 24.8255 198.762 25.5755 199.158 26.1172C199.554 26.6589 200.1 26.9297 200.798 26.9297C201.715 26.9297 202.384 26.5182 202.806 25.6953V21.8125C202.374 21.0156 201.71 20.6172 200.814 20.6172C200.106 20.6172 199.554 20.8906 199.158 21.4375C198.762 21.9844 198.564 22.7943 198.564 23.8672Z" fill="#979797"/>
<path d="M46.5 20.5031L46.3313 5.98125C46.3219 5.26875 45.8156 4.65937 45.1125 4.52812C44.4469 4.39687 35.2875 5.0625 24.6281 0.140625C24.225 -0.046875 23.7656 -0.046875 23.3719 0.140625C17.0156 3.075 10.2938 4.5 3 4.5C2.175 4.5 1.5 5.175 1.5 6V20.5219C1.5 33.7031 10.7063 45.1875 23.6813 47.9625C23.8875 48.0094 24.1031 48.0094 24.3094 47.9625C37.5187 45.1406 46.6031 33.3375 46.5 20.5031ZM24 44.9625C12.6844 42.3844 4.5 32.1562 4.5 20.5219V7.49063C11.1844 7.35938 17.8875 5.85938 24 3.15C30.0656 5.85 36.7125 7.34063 43.35 7.49063L43.5 20.5312C43.5 32.1656 35.3156 42.3844 24 44.9625Z" fill="#979797"/>
<path d="M31.3034 18.6855H30.5534V15.6668C30.5534 12.3387 27.8441 9.63867 24.5253 9.63867C21.2066 9.63867 18.4972 12.348 18.4972 15.6668V18.6855H17.7472C16.5003 18.6855 15.4878 19.698 15.4878 20.9449V31.5012C15.4878 32.748 16.5003 33.7605 17.7472 33.7605H31.3222C32.5691 33.7605 33.5816 32.748 33.5816 31.5012V20.9543C33.5628 19.7074 32.5503 18.6855 31.3034 18.6855ZM20.4941 15.6762C20.4941 13.4543 22.2941 11.6543 24.5159 11.6543C26.7378 11.6543 28.5378 13.4543 28.5378 15.6762V18.6949H20.4941V15.6762Z" fill="#979797"/>
</svg>
